<?xml version="1.0" encoding="UTF-8" standalone="no"?>
<svg
   xmlns:dc="http://purl.org/dc/elements/1.1/"
   xmlns:cc="http://creativecommons.org/ns#"
   xmlns:rdf="http://www.w3.org/1999/02/22-rdf-syntax-ns#"
   xmlns:svg="http://www.w3.org/2000/svg"
   xmlns="http://www.w3.org/2000/svg"
   xmlns:sodipodi="http://sodipodi.sourceforge.net/DTD/sodipodi-0.dtd"
   xmlns:inkscape="http://www.inkscape.org/namespaces/inkscape"
   id="_x33_0"
   enable-background="new 0 0 64 64"
   height="40"
   viewBox="0 0 5 5"
   width="40"
   version="1.1"
   sodipodi:docname="thief.svg"
   inkscape:version="1.0.1 (3bc2e813f5, 2020-09-07)">
  <metadata
     id="metadata55">
    <rdf:RDF>
      <cc:Work
         rdf:about="">
        <dc:format>image/svg+xml</dc:format>
        <dc:type
           rdf:resource="http://purl.org/dc/dcmitype/StillImage" />
        <dc:title></dc:title>
      </cc:Work>
    </rdf:RDF>
  </metadata>
  <defs
     id="defs53" />
  <sodipodi:namedview
     pagecolor="#ffffff"
     bordercolor="#666666"
     borderopacity="1"
     objecttolerance="10"
     gridtolerance="10"
     guidetolerance="10"
     inkscape:pageopacity="0"
     inkscape:pageshadow="2"
     inkscape:window-width="1920"
     inkscape:window-height="986"
     id="namedview51"
     showgrid="false"
     inkscape:zoom="1.5703125"
     inkscape:cx="208"
     inkscape:cy="248"
     inkscape:window-x="-11"
     inkscape:window-y="-11"
     inkscape:window-maximized="1"
     inkscape:current-layer="_x33_0"
     fit-margin-top="0"
     fit-margin-left="0"
     fit-margin-right="0"
     fit-margin-bottom="0" />
  <g
     id="g48"
     transform="matrix(0.09615385,0,0,0.08064516,-0.5769231,-0.08064516)">
    <g
       id="g34">
      <g
         fill="#838f9b"
         id="g8">
        <path
           d="M 40,46 V 62 H 21 v -9.22 l 1.2,0.89 c 1.17,0.86 2.58,1.33 4.04,1.33 2.34,0 4.51,-1.21 5.75,-3.19 L 35.07,46.93 37,48 39.4,40.79 C 39.8,39.6 40,38.36 40,37.11 Z"
           id="path2" />
        <path
           d="m 22.97,38 c 0.76,-1.25 1.73,-2.38 2.86,-3.33 1.14,-0.98 2.45,-1.78 3.88,-2.35 l 2.11,-0.85 0.15,-0.06 C 32.65,31.14 33.38,31 34.11,31 c 0.91,0 1.79,0.22 2.58,0.61 0.79,0.4 1.49,0.97 2.04,1.7 0.83,1.1 1.27,2.43 1.27,3.8 0,1.25 -0.2,2.49 -0.6,3.68 L 37,48 35.07,46.93 29.24,43.69 26,48 21,45.31 c 0,-0.05 0,-0.41 0,-0.46 0.02,-2.47 0.73,-4.82 1.97,-6.85 z"
           id="path4" />
        <path
           d="m 19,38 h 3.97 c -1.24,2.03 -1.95,4.38 -1.97,6.85 v 0.46 L 17,43.15 V 40 c 0,-1.1 0.9,-2 2,-2 z"
           id="path6" />
      </g>
      <path
         d="m 25.83,34.66 v 0.01 C 24.7,35.62 23.73,36.75 22.97,38 H 19 c 0,0 0,-3.1 2,-6.1 1.04,-0.14 2.05,-0.44 3,-0.9 z"
         fill="#b4dd7f"
         id="path10" />
      <path
         d="m 44,21 c 3.59,0 6.84,1.46 9.19,3.81 2.35,2.35 3.81,5.6 3.81,9.19 v 1.53 C 57,41.87 51.87,47 45.53,47 44.52,47 43.5,46.88 42.51,46.63 L 40,46 v -8.89 c 0,-1.37 -0.44,-2.7 -1.27,-3.8 -0.55,-0.73 -1.25,-1.3 -2.04,-1.7 C 35.9,31.22 35.02,31 34.11,31 c -0.73,0 -1.46,0.14 -2.14,0.41 L 31.82,31.47 31,29 c 0,0 3.75,-1.88 5.32,-6.13 l 1.89,-0.76 C 40.05,21.38 42.02,21 44,21 Z"
         fill="#b4dd7f"
         id="path12" />
      <path
         d="m 38,12 h -1 -2 -4 -4 -4 -4 -4 -2 -1 c -0.55,0 -1,0.45 -1,1 v 2 c 0,0.55 0.45,1 1,1 h 1.01 1.99 4 4 2 2 4 4 2 1 c 0.55,0 1,-0.45 1,-1 v -2 c 0,-0.55 -0.45,-1 -1,-1 z"
         fill="#ecc19c"
         id="path14" />
      <path
         d="m 23,2 h 2 c 0,0 -6,3 -6,10 H 15 13 C 13,6.48 17.48,2 23,2 Z"
         fill="#d3a06c"
         id="path16" />
      <path
         d="M 37,12 H 35 31 C 31,5 25,2 25,2 h 2 c 5.52,0 10,4.48 10,10 z"
         fill="#d3a06c"
         id="path18" />
      <path
         d="m 31,12 h -4 -4 -4 c 0,-7 6,-10 6,-10 0,0 6,3 6,10 z"
         fill="#cf9e76"
         id="path20" />
      <path
         d="m 37,16 v 3 c 0,1.46 -0.26,2.75 -0.68,3.87 C 34.75,27.12 31,29 31,29 l -1,-3 0.94,-0.94 C 31.62,24.38 32,23.46 32,22.5 32,21.54 31.62,20.62 30.94,19.94 L 30.71,19.71 C 30.25,19.25 29.64,19 29,19 c -0.64,0 -1.25,0.25 -1.71,0.71 L 26,21 c 0,0 -0.36,0.17 -1,0.43 V 16 h 2 4 4 z"
         fill="#b27946"
         id="path22" />
      <path
         d="m 23,16 h 2 v 5.43 C 22.95,22.25 18.1,24 13.52,24 13.3,21.74 13.06,18.81 13.01,16 H 15 19 Z"
         fill="#aab2bd"
         id="path24" />
      <path
         d="m 17,43.15 4,2.16 5,2.69 3.24,-4.31 5.83,3.24 -3.08,4.88 C 30.75,53.79 28.58,55 26.24,55 24.78,55 23.37,54.53 22.2,53.67 L 21,52.78 13.93,47.54 C 13.64,47.37 13.33,47.24 13,47.15 12.65,47.05 12.29,47 11.92,47 H 10 C 9.65,47 9.31,46.94 9,46.82 7.83,46.42 7,45.31 7,44 7,43.17 7.34,42.42 7.88,41.88 8.19,41.57 8.57,41.32 9,41.18 9.31,41.06 9.65,41 10,41 h 1.49 c 0.51,0 1.02,0.07 1.51,0.19 0.46,0.13 0.91,0.3 1.33,0.53 z"
         fill="#f0d0b4"
         id="path26" />
      <path
         d="m 24,31 c -0.95,0.46 -1.96,0.76 -3,0.9 C 20.54,31.97 20.08,32 19.62,32 19.21,32 18.81,31.9 18.45,31.72 17.56,31.28 17,30.37 17,29.38 V 28 h -3 c 0,0 0,-0.02 -0.01,-0.07 C 13.94,27.59 13.74,26.07 13.52,24 18.1,24 22.95,22.25 25,21.43 25.64,21.17 26,21 26,21 l 1.29,-1.29 C 27.75,19.25 28.36,19 29,19 c 0.64,0 1.25,0.25 1.71,0.71 l 0.23,0.23 c 0.68,0.68 1.06,1.6 1.06,2.56 0,0.96 -0.38,1.88 -1.06,2.56 L 30,26 l 1,3 0.82,2.47 -2.11,0.85 c -1.43,0.57 -2.74,1.37 -3.88,2.35 v -0.01 z"
         fill="#f0d0b4"
         id="path28" />
      <path
         d="m 11.92,47 c 0.37,0 0.73,0.05 1.08,0.15 V 51 c 0,1.1 -0.9,2 -2,2 C 10.45,53 9.95,52.78 9.59,52.41 9.22,52.05 9,51.55 9,51 V 46.83 46.82 C 9.31,46.94 9.65,47 10,47 Z"
         fill="#b27946"
         id="path30" />
      <path
         d="m 9,41.17 v -6.7 C 9,31.73 10.55,29.23 13,28 V 41.19 C 12.51,41.07 12,41 11.49,41 H 10 c -0.35,0 -0.69,0.06 -1,0.18 z"
         fill="#e6e9ed"
         id="path32" />
    </g>
    <g
       id="g46">
      <circle
         cx="17"
         cy="20"
         r="1"
         id="circle36" />
      <path
         d="M 47,26.184 V 24 h -2 v 2 h -2 v 3 c 0,1.654 1.346,3 3,3 0.552,0 1,0.448 1,1 v 1 h -1 c -0.552,0 -1,-0.448 -1,-1 v -1 h -2 v 1 c 0,1.302 0.839,2.402 2,2.816 V 38 h 2 v -2 h 2 v -3 c 0,-1.654 -1.346,-3 -3,-3 -0.552,0 -1,-0.448 -1,-1 v -1 h 1 c 0.552,0 1,0.448 1,1 v 1 h 2 v -1 c 0,-1.302 -0.839,-2.402 -2,-2.816 z"
         id="path38" />
      <path
         d="m 43,40 h 2 v 2 h -2 z"
         id="path40" />
      <path
         d="m 47,40 h 2 v 2 h -2 z"
         id="path42" />
      <path
         d="m 44,20 c -2.119,0 -4.19,0.399 -6.156,1.186 l -0.048,0.019 C 37.919,20.512 38,19.785 38,19 v -2 c 1.103,0 2,-0.897 2,-2 v -2 c 0,-1.103 -0.897,-2 -2,-2 H 37.949 C 37.442,5.402 32.728,1 27,1 H 23 C 17.272,1 12.558,5.402 12.051,11 H 12 c -1.103,0 -2,0.897 -2,2 v 2 c 0,1.103 0.897,2 2,2 h 0.034 c 0.126,3.966 0.579,8.011 0.821,9.955 l -0.302,0.151 C 9.744,28.51 8,31.332 8,34.472 v 6.085 C 6.81,41.25 6,42.526 6,44 c 0,1.474 0.81,2.75 2,3.444 V 51 c 0,1.654 1.346,3 3,3 1.654,0 3,-1.346 3,-3 v -2.162 l 6,4.444 V 63 H 41 V 47.28 l 1.27,0.317 C 43.336,47.865 44.435,48 45.534,48 52.408,48 58,42.408 58,35.534 V 34 C 58,26.28 51.72,20 44,20 Z m -8,-1 c 0,4.656 -2.878,7.352 -4.453,8.48 l -0.403,-1.209 0.502,-0.503 C 32.507,24.907 33,23.717 33,22.5 33,21.283 32.507,20.093 31.646,19.232 L 31.414,19 c -1.289,-1.289 -3.539,-1.289 -4.828,0 L 26,19.586 V 17 h 10 z m -6.678,23.591 2.572,-5.144 -1.789,-0.895 -3.428,6.856 1.07,0.595 -2.031,2.708 -3.709,-1.998 c 0.098,-5.049 3.252,-9.541 8.074,-11.47 l 2.257,-0.902 c 1.959,-0.783 4.331,-0.116 5.594,1.569 0.689,0.918 1.068,2.055 1.068,3.202 0,1.146 -0.184,2.276 -0.545,3.362 L 36.433,46.54 Z M 14,29 h 2 v 0.382 c 0,1.379 0.767,2.619 2.002,3.237 0.394,0.195 0.825,0.295 1.261,0.339 -0.812,1.716 -1.103,3.289 -1.206,4.208 C 16.867,37.564 16,38.677 16,40 v 1.479 L 14.807,40.836 C 14.546,40.696 14.276,40.574 14,40.468 Z m 4,-16 v 2 h -2 v -2 z m 2,0 h 2 v 2 H 20 Z M 25,3.154 C 26.218,3.909 29.519,6.37 29.948,11 H 20.052 C 20.481,6.37 23.782,3.909 25,3.154 Z M 34,13 v 2 h -2 v -2 z m -4,2 h -2 v -2 h 2 z m -4,-2 v 2 h -2 v -2 z m 0.42,8.907 0.161,-0.074 L 28,20.414 c 0.535,-0.533 1.465,-0.533 2,0 l 0.232,0.232 C 30.72,21.135 31,21.81 31,22.5 c 0,0.69 -0.28,1.365 -0.768,1.854 l -1.377,1.376 1.721,5.163 -1.237,0.495 c -1.142,0.457 -2.197,1.043 -3.164,1.729 l -0.834,-1.669 3.105,-1.553 -0.895,-1.789 -3.871,1.936 C 22.427,30.669 21.026,31 19.625,31 19.622,31 19.618,31 19.614,31 19.365,31 19.115,30.941 18.892,30.83 18.343,30.554 18,29.999 18,29.382 V 27 H 14.876 C 14.812,26.501 14.727,25.801 14.635,24.968 20.429,24.652 26.164,22.026 26.42,21.907 Z M 22.408,37 h -2.31 c 0.151,-0.995 0.541,-2.598 1.522,-4.202 0.648,-0.119 1.286,-0.285 1.902,-0.516 l 1.065,2.13 C 23.759,35.192 23.03,36.062 22.408,37 Z M 18,40 c 0,-0.552 0.448,-1 1,-1 h 2.3 c -0.664,1.458 -1.094,3.029 -1.24,4.665 L 18,42.556 Z M 38.002,15 H 36 v -2 h 2 z M 35.941,11 H 31.948 C 31.658,7.245 29.801,4.661 28.136,3.08 32.236,3.6 35.483,6.881 35.941,11 Z M 21.864,3.08 C 20.199,4.661 18.342,7.245 18.052,11 H 14.059 C 14.517,6.881 17.764,3.6 21.864,3.08 Z M 12,13 h 2 v 2 h -2 z m 12,4 v 3.742 c -2.067,0.792 -5.862,2.047 -9.569,2.233 C 14.261,21.181 14.103,19.08 14.035,17 Z M 10,34.472 c 0,-1.777 0.738,-3.421 2,-4.581 V 40.032 C 11.829,40.019 11.659,40 11.487,40 H 10 Z M 11,52 c -0.552,0 -1,-0.448 -1,-1 v -3 h 1.919 c 0.027,0 0.054,0.01 0.081,0.01 V 51 c 0,0.552 -0.448,1 -1,1 z m 3.438,-5.319 C 13.673,46.235 12.802,46 11.919,46 H 10 C 8.897,46 8,45.103 8,44 8,42.897 8.897,42 10,42 h 1.487 c 0.825,0 1.646,0.206 2.37,0.598 l 12.426,6.69 3.229,-4.304 4.149,2.305 -2.516,3.991 C 30.081,52.983 28.247,54 26.239,54 25.008,54 23.784,53.597 22.795,52.863 L 14.529,46.741 Z M 22,61 v -6.283 c 1.257,0.817 2.738,1.283 4.239,1.283 2.702,0 5.17,-1.368 6.6,-3.656 l 2.573,-4.082 2.155,1.197 L 39,45.162 V 61 Z M 56,35.534 C 56,41.305 51.305,46 45.534,46 44.597,46 43.662,45.885 42.754,45.658 L 41,45.22 V 37.113 C 41,35.535 40.479,33.971 39.532,32.712 38.26,31.014 36.233,30 34.112,30 c -0.562,0 -1.115,0.076 -1.655,0.212 l -0.254,-0.763 c 1.219,-0.788 3.595,-2.654 4.894,-5.812 l 1.488,-0.595 C 40.315,22.351 42.137,22 44,22 c 6.617,0 12,5.383 12,12 z"
         id="path44" />
    </g>
  </g>
</svg>
