<?xml version="1.0" encoding="UTF-8" standalone="no"?>
<svg
   xmlns:dc="http://purl.org/dc/elements/1.1/"
   xmlns:cc="http://creativecommons.org/ns#"
   xmlns:rdf="http://www.w3.org/1999/02/22-rdf-syntax-ns#"
   xmlns:svg="http://www.w3.org/2000/svg"
   xmlns="http://www.w3.org/2000/svg"
   xmlns:sodipodi="http://sodipodi.sourceforge.net/DTD/sodipodi-0.dtd"
   xmlns:inkscape="http://www.inkscape.org/namespaces/inkscape"
   t="1605204847710"
   class="icon"
   viewBox="0 0 204.8 204.8"
   version="1.1"
   p-id="18108"
   width="40"
   height="40"
   id="svg206"
   sodipodi:docname="小偷.svg"
   inkscape:version="1.0.1 (3bc2e813f5, 2020-09-07)">
  <metadata
     id="metadata210">
    <rdf:RDF>
      <cc:Work
         rdf:about="">
        <dc:format>image/svg+xml</dc:format>
        <dc:type
           rdf:resource="http://purl.org/dc/dcmitype/StillImage" />
        <dc:title></dc:title>
      </cc:Work>
    </rdf:RDF>
  </metadata>
  <sodipodi:namedview
     pagecolor="#ffffff"
     bordercolor="#666666"
     borderopacity="1"
     objecttolerance="10"
     gridtolerance="10"
     guidetolerance="10"
     inkscape:pageopacity="0"
     inkscape:pageshadow="2"
     inkscape:window-width="1920"
     inkscape:window-height="986"
     id="namedview208"
     showgrid="false"
     fit-margin-top="0"
     fit-margin-left="0"
     fit-margin-right="0"
     fit-margin-bottom="0"
     inkscape:zoom="4.02"
     inkscape:cx="98.006615"
     inkscape:cy="99.292507"
     inkscape:window-x="-11"
     inkscape:window-y="-11"
     inkscape:window-maximized="1"
     inkscape:current-layer="svg206" />
  <defs
     id="defs200">
    <style
       type="text/css"
       id="style198" />
  </defs>
  <path
     d="m 117.74591,128.33044 c 0.35527,-1.50597 0.60604,-3.11511 0.68964,-4.82738 C 119.8775,92.455165 102.6785,67.018586 76.911334,50.679761 61.593143,40.963113 47.048176,51.566845 43.370138,65.079383 33.882473,57.611385 17.414896,68.792752 24.812767,81.04687 c 0.271673,0.453856 0.543346,0.887083 0.81502,1.340939 -7.418769,-0.02063 -31.0961362,-0.103149 -24.4714886,0 7.836728,0.144409 26.6448736,20.959911 26.6448736,20.959911 V 85.791731 c 5.767832,8.705787 13.144805,16.875199 24.137122,18.092369 5.015506,0.557 9.153298,-0.9696 12.538765,-3.65149 4.284078,5.17809 6.478362,11.01633 6.917218,17.98922 -3.761629,-0.0619 -7.523258,0.10315 -11.326684,0.53637 -13.123907,1.52661 -21.232308,4.37353 -23.886346,17.94796 -3.991507,20.44415 6.791831,35.38015 18.411086,51.01756 9.445869,12.70797 31.221524,0.39196 21.629369,-12.50168 -7.836728,-10.54184 -15.715252,-19.18573 -15.380885,-31.43986 7.648647,-1.15527 15.276395,-0.84582 23.050429,-0.10315 3.803425,1.60913 8.0875,2.26929 12.32979,1.9392 6.332074,20.91865 18.369294,39.52677 33.938254,55.43236 11.26399,11.49081 28.96455,-6.04454 17.72146,-17.49409 -15.46448,-15.74057 -25.80896,-33.99796 -30.13484,-55.22606 z M 22.890156,27.945691 c 0.0418,0.350707 0.0418,0.701414 0.08359,1.052121 1.588244,11.449554 12.287989,19.453929 23.865449,17.865431 11.598357,-1.567867 19.68586,-12.130339 18.097617,-23.579894 -0.334368,-2.372431 -1.065795,-4.600452 -2.110692,-6.622176 0.71053,-0.350707 1.044897,-1.15527 0.794121,-2.846916 L 62.930611,8.8218391 C 62.157387,3.231155 56.932902,-0.6678827 51.26956,0.095421 L 28.699784,3.1486357 C 23.036442,3.9119393 19.065833,9.0693971 19.859955,14.66008 l 0.543346,4.043447 c -3.155589,2.496209 -5.830525,5.631943 -5.245383,8.973975 0.543347,2.991326 3.866119,2.248652 7.732238,0.268189 z"
     p-id="18109"
     id="path202"
     style="stroke-width:0.202768" />
  <path
     d="m 80.108719,47.069541 c 0,0 50.802901,26.880667 44.805191,66.510579 -13.1657,33.02835 44.28274,67.06757 75.50426,-9.11839 0,0 39.76878,-104.4281985 -120.309451,-57.392189 z m 86.015931,62.178309 v 6.37462 h -6.87542 v -6.00328 c -3.17649,-0.28882 -6.33208,-1.34094 -8.38008,-2.7644 l -0.9613,-0.68079 2.48685,-6.869724 1.67184,1.093384 c 2.17338,1.42345 4.97371,2.24864 7.64864,2.24864 3.28098,0 5.47526,-1.69164 5.47526,-4.187854 0,-1.69165 -0.68963,-3.507071 -5.70514,-5.528794 -5.30807,-2.042353 -10.74154,-5.033679 -10.74154,-11.552705 0,-5.219347 3.48996,-9.304052 8.94432,-10.665621 v -6.188949 h 6.81273 v 5.776352 c 2.59135,0.268188 4.86922,0.969602 6.91722,2.166133 l 1.14939,0.660154 -2.59135,6.766584 -1.60914,-0.907713 c -0.94041,-0.536375 -3.15559,-1.774165 -6.66644,-1.774165 -3.46906,0 -4.70204,1.794795 -4.70204,3.486441 0,1.815425 0.91951,3.011955 6.37387,5.239977 4.72294,1.897944 10.1564,4.992418 10.1564,12.109706 -0.0418,5.425654 -3.76163,9.778544 -9.40407,11.202004 z"
     p-id="18110"
     id="path204"
     style="stroke-width:0.202768" />
</svg>
