<?xml version="1.0" encoding="UTF-8" standalone="no"?>
<svg
   xmlns:dc="http://purl.org/dc/elements/1.1/"
   xmlns:cc="http://creativecommons.org/ns#"
   xmlns:rdf="http://www.w3.org/1999/02/22-rdf-syntax-ns#"
   xmlns:svg="http://www.w3.org/2000/svg"
   xmlns="http://www.w3.org/2000/svg"
   xmlns:sodipodi="http://sodipodi.sourceforge.net/DTD/sodipodi-0.dtd"
   xmlns:inkscape="http://www.inkscape.org/namespaces/inkscape"
   t="1605415779606"
   class="icon"
   viewBox="0 0 160 160"
   version="1.1"
   p-id="4307"
   width="20"
   height="20"
   id="svg8"
   sodipodi:docname="砖混svg.svg"
   inkscape:version="1.0.1 (3bc2e813f5, 2020-09-07)">
  <metadata
     id="metadata12">
    <rdf:RDF>
      <cc:Work
         rdf:about="">
        <dc:format>image/svg+xml</dc:format>
        <dc:type
           rdf:resource="http://purl.org/dc/dcmitype/StillImage" />
        <dc:title></dc:title>
      </cc:Work>
    </rdf:RDF>
  </metadata>
  <sodipodi:namedview
     pagecolor="#ffffff"
     bordercolor="#666666"
     borderopacity="1"
     objecttolerance="10"
     gridtolerance="10"
     guidetolerance="10"
     inkscape:pageopacity="0"
     inkscape:pageshadow="2"
     inkscape:window-width="1920"
     inkscape:window-height="986"
     id="namedview10"
     showgrid="false"
     inkscape:zoom="6.28125"
     inkscape:cx="80"
     inkscape:cy="64"
     inkscape:window-x="-11"
     inkscape:window-y="-11"
     inkscape:window-maximized="1"
     inkscape:current-layer="svg8"
     fit-margin-top="0"
     fit-margin-left="0"
     fit-margin-right="0"
     fit-margin-bottom="0" />
  <defs
     id="defs4">
    <style
       type="text/css"
       id="style2" />
  </defs>
  <path
     d="m 8,0 h 90.4 c 4.8,0 8,4 8,10 v 35 c 0,6 -3.2,10 -8,10 H 8 C 3.2,55 0,51 0,45 V 10 C 0,4 3.2,0 8,0 Z m 112,0 h 32 c 4.8,0 8,4 8,10 v 35 c 0,6 -3.2,10 -8,10 h -32 c -4.8,0 -8,-4 -8,-10 V 10 c 0,-6 3.2,-10 8,-10 z M 62.4,63 H 152 c 4.8,0 8,4 8,10 v 25 c 0,6 -3.2,10 -8,10 H 62.4 c -4.8,0 -8,-4 -8,-10 V 73 c 0,-6 3.2,-10 8,-10 z M 8,63 h 32 c 4.8,0 8,4 8,10 v 25 c 0,6 -3.2,10 -8,10 H 8 C 3.2,108 0,104 0,98 V 73 C 0,67 3.2,63 8,63 Z m 0,52 h 90.4 c 4.8,0 8,4 8,10 v 25 c 0,6 -3.2,10 -8,10 H 8 c -4.8,0 -8,-4 -8,-10 v -25 c 0,-6 3.2,-10 8,-10 z m 112,0 h 32 c 4.8,0 8,4 8,10 v 25 c 0,6 -3.2,10 -8,10 h -32 c -4.8,0 -8,-4 -8,-10 v -25 c 0,-6 3.2,-10 8,-10 z"
     fill="#1296db"
     p-id="4308"
     id="path6"
     style="stroke-width:0.139754" />
</svg>
