<?xml version="1.0" encoding="UTF-8" standalone="no"?>
<svg
   xmlns:dc="http://purl.org/dc/elements/1.1/"
   xmlns:cc="http://creativecommons.org/ns#"
   xmlns:rdf="http://www.w3.org/1999/02/22-rdf-syntax-ns#"
   xmlns:svg="http://www.w3.org/2000/svg"
   xmlns="http://www.w3.org/2000/svg"
   xmlns:sodipodi="http://sodipodi.sourceforge.net/DTD/sodipodi-0.dtd"
   xmlns:inkscape="http://www.inkscape.org/namespaces/inkscape"
   t="1605332466886"
   class="icon"
   viewBox="0 0 102.4 102.4"
   version="1.1"
   p-id="10811"
   width="20"
   height="20"
   id="svg8"
   sodipodi:docname="砖混110.25.svg"
   inkscape:version="1.0.1 (3bc2e813f5, 2020-09-07)">
  <metadata
     id="metadata12">
    <rdf:RDF>
      <cc:Work
         rdf:about="">
        <dc:format>image/svg+xml</dc:format>
        <dc:type
           rdf:resource="http://purl.org/dc/dcmitype/StillImage" />
        <dc:title></dc:title>
      </cc:Work>
    </rdf:RDF>
  </metadata>
  <sodipodi:namedview
     pagecolor="#ffffff"
     bordercolor="#666666"
     borderopacity="1"
     objecttolerance="10"
     gridtolerance="10"
     guidetolerance="10"
     inkscape:pageopacity="0"
     inkscape:pageshadow="2"
     inkscape:window-width="1920"
     inkscape:window-height="986"
     id="namedview10"
     showgrid="false"
     inkscape:zoom="4.02"
     inkscape:cx="125"
     inkscape:cy="70.149254"
     inkscape:window-x="-11"
     inkscape:window-y="-11"
     inkscape:window-maximized="1"
     inkscape:current-layer="svg8"
     fit-margin-top="0"
     fit-margin-left="0"
     fit-margin-right="0"
     fit-margin-bottom="0" />
  <defs
     id="defs4">
    <style
       type="text/css"
       id="style2" />
  </defs>
  <path
     d="m 5.12,0 h 57.856 c 3.072,0 5.12,2.56 5.12,6.4 v 22.4 c 0,3.84 -2.048,6.4 -5.12,6.4 H 5.12 C 2.048,35.2 0,32.64 0,28.8 V 6.4 C 0,2.56 2.048,0 5.12,0 Z M 76.8,0 h 20.48 c 3.072,0 5.12,2.56 5.12,6.4 v 22.4 c 0,3.84 -2.048,6.4 -5.12,6.4 H 76.8 c -3.072,0 -5.12,-2.56 -5.12,-6.4 V 6.4 C 71.68,2.56 73.728,0 76.8,0 Z M 39.936,40.32 H 97.28 c 3.072,0 5.12,2.56 5.12,6.4 v 16 c 0,3.84 -2.048,6.4 -5.12,6.4 H 39.936 c -3.072,0 -5.12,-2.56 -5.12,-6.4 v -16 c 0,-3.84 2.048,-6.4 5.12,-6.4 z m -34.816,0 H 25.6 c 3.072,0 5.12,2.56 5.12,6.4 v 16 c 0,3.84 -2.048,6.4 -5.12,6.4 H 5.12 C 2.048,69.12 0,66.56 0,62.72 v -16 c 0,-3.84 2.048,-6.4 5.12,-6.4 z m 0,33.28 h 57.856 c 3.072,0 5.12,2.56 5.12,6.4 v 16 c 0,3.84 -2.048,6.4 -5.12,6.4 H 5.12 C 2.048,102.4 0,99.84 0,96 V 80 c 0,-3.84 2.048,-6.4 5.12,-6.4 z m 71.68,0 h 20.48 c 3.072,0 5.12,2.56 5.12,6.4 v 16 c 0,3.84 -2.048,6.4 -5.12,6.4 H 76.8 c -3.072,0 -5.12,-2.56 -5.12,-6.4 V 80 c 0,-3.84 2.048,-6.4 5.12,-6.4 z"
     fill="#13227a"
     p-id="10812"
     id="path6"
     style="stroke-width:0.0894428" />
</svg>
