<?xml version="1.0" encoding="UTF-8" standalone="no"?>
<svg
   xmlns:dc="http://purl.org/dc/elements/1.1/"
   xmlns:cc="http://creativecommons.org/ns#"
   xmlns:rdf="http://www.w3.org/1999/02/22-rdf-syntax-ns#"
   xmlns:svg="http://www.w3.org/2000/svg"
   xmlns="http://www.w3.org/2000/svg"
   xmlns:sodipodi="http://sodipodi.sourceforge.net/DTD/sodipodi-0.dtd"
   xmlns:inkscape="http://www.inkscape.org/namespaces/inkscape"
   t="1605204724646"
   class="icon"
   viewBox="0 0 204.8 204.8"
   version="1.1"
   p-id="12581"
   width="40"
   height="40"
   id="svg178"
   sodipodi:docname="音效-小狗.svg"
   inkscape:version="1.0.1 (3bc2e813f5, 2020-09-07)">
  <metadata
     id="metadata182">
    <rdf:RDF>
      <cc:Work
         rdf:about="">
        <dc:format>image/svg+xml</dc:format>
        <dc:type
           rdf:resource="http://purl.org/dc/dcmitype/StillImage" />
        <dc:title></dc:title>
      </cc:Work>
    </rdf:RDF>
  </metadata>
  <sodipodi:namedview
     pagecolor="#ffffff"
     bordercolor="#666666"
     borderopacity="1"
     objecttolerance="10"
     gridtolerance="10"
     guidetolerance="10"
     inkscape:pageopacity="0"
     inkscape:pageshadow="2"
     inkscape:window-width="1920"
     inkscape:window-height="986"
     id="namedview180"
     showgrid="false"
     fit-margin-top="0"
     fit-margin-left="0"
     fit-margin-right="0"
     fit-margin-bottom="0"
     inkscape:zoom="4.02"
     inkscape:cx="88.414784"
     inkscape:cy="92.505322"
     inkscape:window-x="-11"
     inkscape:window-y="-11"
     inkscape:window-maximized="1"
     inkscape:current-layer="svg178" />
  <defs
     id="defs106">
    <style
       type="text/css"
       id="style104" />
  </defs>
  <path
     d="m 176.4223,129.05027 a 6.1954874,5.918143 0 0 1 -2.51849,-11.30702 c 15.11095,-6.76015 20.75237,-46.5753 18.00721,-55.33223 a 6.1954874,5.918143 0 1 1 11.78654,-3.34399 c 3.92884,12.60613 -2.26664,59.56635 -24.68121,69.50209 a 6.3717817,6.0865453 0 0 1 -2.59405,0.48115 z"
     fill="#a56867"
     p-id="12582"
     id="path108"
     style="stroke-width:0.221148" />
  <path
     d="m 128.16802,168.93759 h -24.27825 c -1.88887,0 -1.93924,0 -1.93924,1.80432 v 22.75838 c 0,0.7939 0.30222,1.63591 -0.30222,2.40575 a 5.0369817,4.8114984 0 0 0 -5.389575,-2.62226 h -8.89027 a 16.42056,15.685484 0 0 0 -7.78214,1.10664 1.611834,1.5396794 0 0 1 -1.35998,0 v -22.25318 a 19.770153,18.885131 0 0 1 0,-2.02083 c 0,-0.98636 -0.40296,-1.22693 -1.35999,-1.25099 a 39.414381,37.649973 0 0 1 -15.11094,-3.31993 2.0399775,1.9486568 0 0 0 -1.3348,-0.21652 23.044191,22.012605 0 0 1 -7.80733,-4.40252 40.295853,38.491987 0 0 1 -14.355393,-21.65174 c -0.201479,-0.93824 -0.881472,-2.02083 0.478513,-2.76661 a 8.3613893,7.987087 0 0 1 2.87108,0.89012 33.924071,32.405442 0 0 0 12.06357,2.23735 h 56.791975 a 30.599663,29.229851 0 0 0 24.22788,-46.88805 c -0.45333,-0.28869 -0.75555,-0.6255 -0.3274,-1.1307 h 16.79833 a 40.598072,38.780676 0 0 1 28.78635,11.61977 c 0.73036,0.67361 1.13332,1.61185 2.06516,2.093 2.77034,1.58779 6.27104,7.57811 5.91845,10.03197 a 5.9688231,5.7016253 0 0 1 -1.53627,1.37128 c -3.677,2.62226 0.42814,14.67507 -0.75555,17.12893 0,0 -0.15111,0.24058 -0.20148,0.38492 -0.25185,0.89013 -1.68739,1.70808 -0.90666,2.40575 0.78073,0.69767 2.21627,0.19246 3.34959,0 1.13333,-0.19246 1.86369,-1.1307 3.07256,-0.89013 v 56.8238 c -1.71257,0.57738 -3.3244,-0.33681 -5.03698,-0.28869 -4.02958,0.14434 -8.05917,0.1684 -12.08875,0 -2.97182,0 -5.54068,0 -6.32142,3.46428 -0.62962,-0.86607 -0.3274,-1.87649 -0.3274,-2.81473 v -25.8618 -0.9623 c 0,-0.24058 -0.52888,-0.28869 -0.75555,-0.21652 a 40.295853,38.491987 0 0 1 -12.8443,2.8869 c -1.25925,0 -1.53628,0.50521 -1.51109,1.61185 v 16.28692 c 0,0.7939 0.25184,1.63591 -0.32741,2.40575 -1.00739,-0.86607 -0.78073,-2.04489 -0.80592,-3.12747 v -13.61654 c 0,-2.40575 -0.20147,-2.69444 -2.77033,-2.7185 h -16.64723 a 5.0369817,4.8114984 0 0 1 -3.34959,-0.69767 z"
     fill="#af7675"
     p-id="12583"
     id="path110"
     style="stroke-width:0.221148" />
  <path
     d="m 36.671243,134.55944 1.28443,0.72172 c 0.251849,0.43304 0.805917,0.81796 0.428143,1.44345 a 34.352214,32.814418 0 0 0 3.047379,9.86357 42.134351,40.248182 0 0 0 11.18209,13.71277 27.703399,26.46324 0 0 0 5.99401,3.75297 c 0.65481,0.31275 1.5111,0.4571 1.78813,1.29911 v 22.54187 c 0,0.84201 0.30222,1.78025 -0.42814,2.55009 a 5.0369817,4.8114984 0 0 0 -4.30662,-1.65997 h -14.15392 a 22.792342,21.772031 0 0 0 -4.533284,0.76984 c -0.528883,-0.57738 -0.352588,-1.27504 -0.352588,-1.92459 v -52.1807 c -0.02519,-0.28869 0.02518,-0.57738 0.05037,-0.89013 z m 91.496777,34.37815 h 21.65902 c 1.78813,0 1.81331,0 1.81331,1.73214 v 18.4521 c -7.78213,-0.38492 -15.56427,-0.31275 -23.37159,0 v -15.85389 c -0.0756,-1.49156 -0.0756,-2.91095 -0.10074,-4.33035 z"
     fill="#a56867"
     p-id="12584"
     id="path112"
     style="stroke-width:0.221148" />
  <path
     d="m 167.50684,195.80981 v -1.53968 c 0,-1.80431 0.57926,-2.40575 2.5185,-2.40575 a 12.592454,12.028746 0 0 1 1.38517,0 h 13.47392 a 12.869488,12.293378 0 0 1 6.06956,0.93824 10.728771,10.248491 0 0 1 -4.86068,10.63342 2.5184908,2.4057492 0 0 1 -0.55407,-0.0241 c -0.90666,-0.72173 -0.62962,-1.73214 -0.67999,-2.64633 a 16.949443,16.190692 0 0 0 -0.1763,-2.86284 c -0.15111,-0.5052 -0.37777,-1.05853 -1.05776,-0.9623 -0.68,0.0962 -0.68,0.57738 -0.68,1.01042 a 11.131729,10.633411 0 0 0 0.68,6.23089 15.665013,14.96376 0 0 1 -6.57327,0.38492 c -1.18369,-1.70808 -0.42814,-3.63268 -0.67999,-5.43699 0,-0.84202 0.30222,-2.23735 -0.80592,-2.26141 -1.10813,-0.0241 -0.98221,1.39534 -1.10813,2.40575 -0.22667,1.51562 0.45333,3.15153 -0.67999,4.52281 a 9.3939707,8.9734443 0 0 1 -6.27105,-7.98709 z m -89.280495,-1.39533 a 12.592454,12.028746 0 0 1 7.55547,-1.82837 c 3.72736,0.14434 7.55547,0 11.20728,0 h 1.15851 c 2.518495,0 3.374785,0.76984 3.551075,3.24776 a 9.041382,8.6366394 0 0 1 -4.684395,7.21725 c -1.18369,-1.17882 -0.5037,-2.67039 -0.75555,-3.99355 -0.15111,-0.69766 0,-1.68402 -1.08295,-1.63591 -1.08295,0.0481 -0.78073,0.9623 -0.8311,1.5878 -0.15111,1.75619 0,3.51239 -0.15111,5.26859 a 15.312424,14.626955 0 0 1 -6.14512,0.38492 c -0.98221,-1.17882 -0.52888,-2.57415 -0.65481,-3.87326 -0.12592,-1.2991 0.30222,-2.40575 -0.62962,-3.82514 -1.05777,0.76984 -0.78073,1.7562 -0.85629,2.64632 -0.17629,1.51563 0.42815,3.15154 -0.65481,4.54687 a 10.073963,9.6229965 0 0 1 -7.02658,-9.74328 z m 50.092785,-5.437 a 8.4873139,8.1073745 0 0 1 4.3318,-0.84201 h 15.11095 a 7.2532534,6.9285575 0 0 1 3.97921,0.93824 8.9154574,8.5163519 0 0 1 -4.65921,7.21725 c -0.95702,-0.81795 -0.52888,-1.94866 -0.73036,-2.93501 -0.20148,-0.98636 0,-1.49157 -1.05776,-1.44345 -1.05777,0.0481 -0.80592,0.81795 -0.88148,1.39533 a 42.990638,41.066137 0 0 1 -0.17629,4.21006 12.592454,12.028746 0 0 1 -5.64142,0.38492 3.2488532,3.1034164 0 0 1 -0.62962,-2.40575 v -2.64632 c 0,-0.89013 0,-1.49156 -1.03258,-1.44345 -1.03259,0.0481 -0.78074,0.81796 -0.85629,1.39533 -0.0756,0.57739 0,1.46751 0,2.18924 a 3.1481134,3.0071863 0 0 1 -0.60444,2.40575 9.8724838,9.4305365 0 0 1 -7.15251,-8.42013 z m -91.370853,0.57738 a 2.8962644,2.7666115 0 0 1 2.896264,-1.41939 h 17.629434 c 2.06516,0 2.29183,0.26463 2.51849,2.40575 a 9.0917519,8.6847545 0 0 1 -6.09475,6.68798 c -0.88147,-0.84201 -0.57925,-1.9246 -0.6548,-2.93501 -0.0756,-1.01041 0.12592,-1.9246 -0.90666,-2.74255 -1.38517,2.093 0.20148,4.54686 -1.25925,6.4474 a 16.193896,15.468967 0 0 1 -6.57326,-0.43303 19.543489,18.668613 0 0 0 0.32741,-4.61904 c 0,-0.76984 0.22666,-1.99677 -0.88147,-1.99677 -1.10814,0 -0.98222,1.25099 -1.08296,2.093 -0.17629,1.20287 0.32741,2.40575 -0.6548,3.60862 a 9.041382,8.6366394 0 0 1 -5.263648,-7.09696 z"
     fill="#925453"
     p-id="12585"
     id="path114"
     style="stroke-width:0.221148" />
  <path
     d="m 173.65196,203.77284 v -5.58134 a 2.5184908,2.4057492 0 0 1 0.37778,-1.68402 1.8384982,1.7561968 0 0 1 1.83849,-0.72173 c 0.85629,0.16841 1.05777,0.74579 1.05777,1.49157 v 7.36159 a 4.6340231,4.4265784 0 0 1 -3.27404,-0.86607 z m 9.8473,0.48115 c -0.8311,0 -1.48591,0 -1.43554,-1.17882 v -5.12424 c 0,-1.20288 0.78073,-2.2614 1.5111,-2.093 a 2.1407173,2.0448869 0 0 1 1.73775,2.093 v 5.53322 a 2.997004,2.8628414 0 0 1 -1.81331,0.76984 z"
     fill="#7a3e3d"
     p-id="12586"
     id="path116"
     style="stroke-width:0.221148" />
  <path
     d="m 94.143205,204.27805 a 0.80591702,0.76983969 0 0 1 -0.5037,-0.67361 v -5.55728 a 1.7125738,1.6359095 0 0 1 0.65481,-1.34722 1.1585058,1.1066446 0 0 1 2.06516,0.24057 3.7021814,3.5364512 0 0 1 0.57925,2.11706 v 3.99355 a 4.4325437,4.2341184 0 0 1 -2.79552,1.22693 z"
     fill="#7b3e3d"
     p-id="12587"
     id="path118"
     style="stroke-width:0.221148" />
  <path
     d="m 42.136365,196.65182 v -4.81149 c 0,-1.53968 0.78073,-1.97272 1.98961,-1.80432 0.70518,0 1.20888,0.40898 1.20888,1.10665 v 5.99031 c 0,0.40898 -0.52889,0.4571 -0.90666,0.52927 a 3.3244079,3.1755889 0 0 1 -2.29183,-1.01042 z"
     fill="#7a3e3d"
     p-id="12588"
     id="path120"
     style="stroke-width:0.221148" />
  <path
     d="m 85.202565,204.15776 v -5.7738 a 5.9436383,5.6775679 0 0 1 0,-1.10664 1.5866492,1.515622 0 0 1 1.28443,-1.39534 1.4607246,1.3953345 0 0 1 1.46072,1.44345 v 7.33754 a 5.0369817,4.8114984 0 0 1 -2.74515,-0.50521 z"
     fill="#793d3c"
     p-id="12589"
     id="path122"
     style="stroke-width:0.221148" />
  <path
     d="m 135.29535,197.42166 v -4.21006 a 8.8902725,8.4922945 0 0 1 0,-1.10664 1.8133134,1.7321394 0 0 1 1.53628,-1.68403 c 0.75554,-0.14434 1.63702,0.76984 1.71257,1.7562 0.0755,0.98636 0,2.21329 0,3.31993 v 2.40575 a 5.5406799,5.2926482 0 0 1 -3.24885,-0.48115 z"
     fill="#7a3e3d"
     p-id="12590"
     id="path124"
     style="stroke-width:0.221148" />
  <path
     d="m 51.026645,197.90281 v -5.50916 c 0,-0.89013 -0.12593,-1.90054 1.20887,-1.97272 0.8311,0 1.56147,0.93825 1.58665,2.09301 v 4.61903 a 5.5658647,5.3167056 0 0 1 -2.79552,0.76984 z"
     fill="#7a3d3c"
     p-id="12591"
     id="path126"
     style="stroke-width:0.221148" />
  <path
     d="m 144.18562,197.54195 a 10.073963,9.6229965 0 0 1 -0.3274,-5.53322 1.4103547,1.3472194 0 0 1 1.53627,-1.1307 1.7377586,1.6599669 0 0 1 1.56147,1.65996 v 3.77703 a 4.6340231,4.4265784 0 0 1 -2.77034,1.22693 z"
     fill="#7a3e3d"
     p-id="12592"
     id="path128"
     style="stroke-width:0.221148" />
  <path
     d="m 38.383816,136.72461 c -0.201479,-0.45709 -0.579253,-0.89012 -0.428143,-1.44345 a 36.341822,34.714959 0 0 0 12.416162,1.46751 h 61.073405 a 23.472334,22.421581 0 0 0 20.8531,-11.01833 35.838124,34.233811 0 0 0 5.03698,-24.05749 57.446775,54.875138 0 0 0 -2.51849,-9.23808 3.7021814,3.5364512 0 0 1 1.88887,1.56374 33.470743,31.972406 0 0 1 4.78513,13.44814 30.549293,29.181736 0 0 1 -11.05617,25.90991 27.879693,26.631642 0 0 1 -15.11095,6.47147 35.888494,34.281926 0 0 1 -4.60883,0.36086 H 53.897715 a 33.344818,31.852119 0 0 1 -15.513899,-3.46428 z"
     fill="#9e6160"
     p-id="12593"
     id="path130"
     style="stroke-width:0.221148" />
  <path
     d="m 161.46247,123.75762 c -2.79553,0 -2.87108,-0.21651 -2.51849,-2.55009 a 8.4369443,8.0592597 0 0 1 1.41035,-2.76661 c 1.05777,-1.68402 0.95703,-2.64632 -0.67999,-3.75297 a 10.678401,10.200376 0 0 0 -2.03998,-1.05853 4.4325437,4.2341184 0 0 1 -1.81331,-1.37127 1.6873888,1.6118519 0 0 1 0,-2.40576 20.399775,19.486568 0 0 1 7.37917,-2.67038 4.1303249,3.9454286 0 0 1 3.45034,0.86607 14.531692,13.881173 0 0 1 4.75995,5.87003 6.4977063,6.2068328 0 0 1 -2.21628,6.92856 12.164311,11.619768 0 0 1 -7.73176,2.91095 z m 4.73476,14.2661 c 0.95703,-1.01042 2.26664,-0.74578 3.27404,-1.22693 a 0.78073219,0.74578228 0 0 1 1.03258,0.3368 22.162719,21.170592 0 0 1 3.12293,4.8115 c -1.46073,0.3368 -2.92145,0.24057 -4.28144,0.64955 a 1.2088756,1.1547596 0 0 1 -1.43554,-1.01041 33.042599,31.563428 0 0 0 -1.71257,-3.56051 z"
     fill="#a66766"
     p-id="12594"
     id="path132"
     style="stroke-width:0.221148" />
  <path
     d="m 134.48943,90.89509 v 2.40575 c -0.88147,0 -0.90666,-0.55332 -1.18369,-0.91418 a 29.063384,27.762346 0 0 0 -12.99541,-10.05603 20.752364,19.823373 0 0 0 -7.80732,-1.29911 h -2.94664 c -0.60444,-0.60144 -0.47851,-1.37128 -0.55407,-2.093 a 11.862092,11.331078 0 0 0 -8.71398,-10.60935 c -0.629625,-0.19247 -1.435535,-0.16841 -1.536275,-1.08259 0.93184,-1.08259 2.291825,-1.73214 3.299225,-2.79067 a 11.937646,11.403251 0 0 0 -0.35259,-15.757658 12.31542,11.764113 0 0 0 -16.017605,-0.890127 12.113941,11.571653 0 0 0 -2.51849,15.613315 19.14053,18.283693 0 0 0 2.31701,2.40575 c 0.52888,0.5052 1.28443,1.1307 0,1.73214 a 90.237525,86.197992 0 0 1 -15.11095,0 c -0.57925,-0.21652 -0.93184,-0.52927 -0.47851,-1.15476 a 11.811722,11.282963 0 0 1 1.46073,-1.44345 11.736167,11.210791 0 0 0 2.51849,-13.448141 12.063571,11.523538 0 0 0 -22.66642,3.247762 11.811722,11.282963 0 0 0 6.44734,12.028749 2.0399775,1.9486568 0 0 1 0.35258,0.28869 c 0,1.10664 -1.00739,0.98635 -1.6622,1.17881 a 11.610242,11.090503 0 0 0 -8.53768,10.29661 c 0,0.86607 0.15111,1.80431 -0.68,2.40575 a 26.721187,25.524998 0 0 0 -12.59245,5.70162 52.485348,50.135812 0 0 0 -6.019193,6.63987 c 0.277034,-4.45063 0.251849,-8.92533 0.730363,-13.35191 v -1.32316 c 0.201479,-4.8115 0.277034,-9.62299 0.629622,-14.26609 a 84.696845,80.905343 0 0 0 0.579253,-10.104148 13.977624,13.351908 0 0 1 0,-4.979901 3.022189,2.886899 0 0 1 1.939238,-1.491564 19.392379,18.524268 0 0 1 2.82071,-1.082586 6.9510346,6.6398676 0 0 0 5.263646,-7.409708 V 27.022452 a 5.4651249,5.2204755 0 0 1 0.679991,-3.223703 18.611647,17.778486 0 0 1 7.70658,-3.392106 54.097182,51.675492 0 0 1 12.44135,-0.192461 4.1555097,3.969486 0 0 0 2.51849,0.38492 h 35.81294 a 5.0369817,4.8114984 0 0 0 2.518495,-0.336804 42.209906,40.320356 0 0 1 12.59245,0.312748 16.118341,15.396795 0 0 1 7.83251,3.897312 11.03099,10.537181 0 0 1 0.27703,3.777026 c -0.22666,4.546868 0.37778,9.069674 0.5037,13.592483 a 4.4073589,4.210061 0 0 0 2.29183,3.656739 8.4369443,8.0592597 0 0 0 2.31701,1.034473 5.4399401,5.1964181 0 0 1 4.88587,5.966258 4.2310644,4.0416584 0 0 1 0.15111,1.780254 c -1.0074,1.443449 -0.30222,3.031244 -0.35259,4.546865 0,0.505207 0.20148,1.034473 0.22667,1.53968 0.20148,4.546864 0.35258,9.069674 0.60443,13.616544 0.32741,5.62945 0.68,11.2589 1.0074,16.91241 z"
     fill="#af7675"
     p-id="12595"
     id="path134"
     style="stroke-width:0.221148" />
  <path
     d="m 41.733405,23.846864 a 4.079955,3.8973135 0 0 0 -0.45332,2.405748 V 38.93091 a 25.361202,24.225894 0 0 1 -0.57926,4.594981 c -0.251846,1.708082 -1.813311,2.40575 -3.274035,3.127475 -1.460725,0.721724 -3.450333,1.25099 -5.162906,1.924599 -0.478514,0.168403 -1.057767,0.264633 -1.309616,0.817956 a 6.3214118,6.0384303 0 0 1 -7.051774,0 A 54.374216,51.940124 0 0 0 15.314441,40.711166 126.40305,120.74455 0 0 1 4.7871492,30.919767 21.507911,20.545098 0 0 1 0.25386622,22.018495 6.3717817,6.0865453 0 0 1 3.6790132,14.801246 C 11.864108,10.278439 20.074388,5.7556295 28.234298,1.1847065 a 7.7317668,7.3856499 0 0 1 7.933246,0 c 5.238461,4.955843 6.422151,11.4513665 5.817711,18.3558665 a 5.8428987,5.5813381 0 0 0 0,2.189233 2.6947851,2.5741515 0 0 1 -0.25185,2.117058 z m 90.917525,29.061449 c -0.85629,-0.721724 -0.45333,-1.684023 -0.40296,-2.405748 a 2.1910869,2.0930017 0 0 0 -1.68739,-2.40575 c -1.51109,-0.553322 -3.02218,-1.106645 -4.50809,-1.732139 a 5.1629061,4.9317857 0 0 1 -3.47552,-5.003959 c -0.22667,-5.677567 -0.5037,-11.379192 -0.40296,-17.080818 a 6.3717817,6.0865453 0 0 1 -0.85629,-3.488336 20.42496,19.510625 0 0 0 0.20148,-4.426578 21.482727,20.52104 0 0 1 5.8429,-15.3486805 7.5554723,7.2172473 0 0 1 7.73177,0 q 12.8443,7.072902 25.63823,14.1939205 a 6.3969665,6.1106027 0 0 1 2.51849,7.217246 21.004213,20.063948 0 0 1 -5.84289,9.983861 c -3.3496,3.223703 -6.82511,6.303062 -10.351,9.358363 a 49.941672,47.706005 0 0 0 -7.07696,7.000729 5.9184534,5.6535105 0 0 1 -6.64882,0.986358 c -0.52888,0.914185 0.25185,2.261404 -0.67999,3.151531 z"
     fill="#a1706f"
     p-id="12596"
     id="path136"
     style="stroke-width:0.221148" />
  <path
     d="m 41.733405,21.58546 c -0.78073,-0.481151 -0.45332,-1.202875 -0.37777,-1.804313 A 23.447149,22.397525 0 0 0 36.318654,1.8102015 c -0.226664,-0.264633 -0.654808,-0.529265 0,-0.81795497 a 101.19296,96.663 0 0 1 9.721371,7.21724797 c 0.30222,0.673609 0,1.299104 -0.17629,1.9486565 a 3.9792155,3.8010836 0 0 0 5.26364,4.258175 c 0.78074,-0.240574 1.5111,-0.721724 2.5185,-0.481148 a 83.110196,79.389722 0 0 1 8.0088,6.230889 c -0.40296,0.673609 -1.08295,0.457094 -1.66221,0.457094 h -7.37918 a 10.325812,9.8635715 0 0 0 -3.8281,0.457092 c -2.49331,-1.900541 -4.81032,-1.130704 -7.05178,0.505207 z M 127.3621,1.0163045 c 0.5037,1.154759 -0.75555,1.611852 -1.23406,2.189231 a 20.324221,19.414396 0 0 0 -3.42515,7.7465135 37.449958,35.773488 0 0 0 -0.47851,7.67434 c 0,0.67361 0.40296,1.491563 -0.45333,2.020828 a 5.9184534,5.6535105 0 0 0 -6.54807,0.457092 69.459976,66.350561 0 0 0 -11.88728,-0.457092 c -0.45333,0 -0.93184,0 -1.20888,-0.408976 a 86.484974,82.613425 0 0 1 8.0088,-6.254948 c 0.95703,-0.601437 1.76295,0 2.51849,0.336805 a 3.9288456,3.7529686 0 0 0 5.56587,-4.089774 c 0,-0.8660705 -0.40296,-1.7561975 0.17629,-2.5982095 a 99.404832,94.954918 0 0 1 8.96583,-6.61581 z"
     fill="#8b5655"
     p-id="12597"
     id="path138"
     style="stroke-width:0.221148" />
  <path
     d="m 118.47183,7.6802295 c 0,1.202874 0.60444,2.261404 0.52888,3.5123945 a 4.5332835,4.3303485 0 0 1 -6.29623,3.82514 c -0.85628,-0.336805 -1.56146,-0.986358 -2.51849,-0.986358 2.6696,-2.18923 5.41476,-4.3544045 8.28584,-6.3511765 z M 53.419205,14.00735 c -0.55407,0.264633 -1.08295,0.553322 -1.63702,0.793896 a 4.5584683,4.3544059 0 0 1 -5.36438,-0.64955 4.7599477,4.5468659 0 0 1 -0.93184,-5.0761325 8.5880537,8.2036046 0 0 1 0.42814,-0.793897 c 2.59404,1.7802555 5.08735,3.7048545 7.5051,5.7256835 z"
     fill="#a67776"
     p-id="12598"
     id="path140"
     style="stroke-width:0.221148" />
  <path
     d="m 58.330265,37.270943 a 15.110945,14.434495 0 0 1 -4.60884,-0.408976 c -1.0074,-0.312749 -1.76294,-0.842012 -1.53628,-1.876485 a 1.8133134,1.7321394 0 0 1 2.14072,-1.323162 c 1.38517,0 2.74515,0.457094 4.15551,0.457092 a 9.4695254,9.0456168 0 0 0 9.46952,-4.811497 1.8133134,1.7321394 0 0 1 2.51849,-0.842014 c 0.83111,0.408979 1.05777,1.44345 0.45333,2.550094 a 11.635428,11.114561 0 0 1 -10.25026,6.303063 z m 46.919485,0.890129 a 15.110945,14.434495 0 0 1 -7.731765,-1.299105 12.31542,11.764113 0 0 1 -5.36439,-5.677567 1.6622039,1.5877944 0 0 1 0.60444,-2.40575 1.7377586,1.6599669 0 0 1 2.51849,0.673609 1.7629435,1.6840243 0 0 1 0.25185,0.38492 9.1421215,8.7328693 0 0 0 9.419155,5.172362 h 3.50071 c 1.53627,0 2.14071,0.433033 2.11553,1.467506 -0.0252,1.034472 -0.73036,1.63591 -2.03998,1.708082 -1.30962,0.07217 -2.19109,-0.02406 -3.27404,-0.02406 z"
     fill="#351919"
     p-id="12599"
     id="path142"
     style="stroke-width:0.221148" />
  <path
     d="m 115.22298,21.152425 a 3.9288456,3.7529686 0 0 1 6.54807,-0.457092 9.0917519,8.6847545 0 0 1 0.47851,3.584566 71.22292,68.034586 0 0 0 -7.02658,-3.127474 z M 41.733405,21.58546 c 0.78074,-0.986358 1.46073,-2.068944 2.94664,-2.237346 a 3.6518116,3.4883361 0 0 1 4.10514,1.804311 27.552289,26.318896 0 0 0 -7.05178,2.694439 z"
     fill="#a67675"
     p-id="12600"
     id="path144"
     style="stroke-width:0.221148" />
  <path
     d="m 24.305453,77.06204 m 32.538902,0 h 48.959465 q 32.5389,0 32.5389,31.08227 v 1.22693 q 0,31.08228 -32.5389,31.08228 H 56.844355 q -32.538902,0 -32.538902,-31.08228 v -1.22693 q 0,-31.08227 32.538902,-31.08227 z"
     fill="#f8e8db"
     p-id="12601"
     id="path146"
     style="stroke-width:0.221148" />
  <path
     d="m 187.57922,113.70159 a 16.798334,16.046347 0 0 1 0.88147,2.40575 36.744781,35.099879 0 0 1 2.51849,18.37993 l -0.15111,1.32316 a 9.1169367,8.7088119 0 0 1 -6.97622,1.78025 c -0.93184,0 -1.25925,-0.67361 -0.62962,-1.32316 a 13.121337,12.533953 0 0 0 2.03997,-3.19965 c 0.88148,-1.80431 0.27704,-2.76661 -1.78812,-3.07935 -2.5185,-0.36087 -2.5185,-0.36087 -2.51849,-2.67039 v -1.78025 a 13.322816,12.726413 0 0 1 6.62363,-11.83629 z"
     fill="#a66766"
     p-id="12602"
     id="path148"
     style="stroke-width:0.221148" />
  <path
     d="m 132.65093,51.031829 v -3.993543 a 5.9184534,5.6535105 0 0 0 6.90067,-0.457092 c 0.17629,-0.120289 0.42814,0 0.55406,0.240574 a 8.8902725,8.4922945 0 0 1 -6.92585,5.533223 c -0.80591,-0.216518 -0.52888,-0.817955 -0.52888,-1.323162 z"
     fill="#8c5756"
     p-id="12603"
     id="path150"
     style="stroke-width:0.221148" />
  <path
     d="m 23.927679,47.495377 c 0.176294,-0.144343 0.428144,-0.433033 0.478513,-0.408976 a 8.4117592,8.0352021 0 0 0 6.573261,0.360861 v 3.680797 c 0,0.481151 0,1.010414 -0.528883,1.299104 a 8.9658273,8.5644669 0 0 1 -6.522891,-4.931786 z"
     fill="#8b5756"
     p-id="12604"
     id="path152"
     style="stroke-width:0.221148" />
  <path
     d="m 69.688655,65.29792 h 16.5213 a 6.1199327,5.8459705 0 0 1 4.0044,-0.60144 h 6.19549 a 2.6696003,2.5500941 0 0 1 2.29183,0.74579 c 0.90665,0.64955 2.039975,0.38492 3.047375,0.84201 a 12.793933,12.221206 0 0 1 7.70658,12.87076 13.977624,13.351908 0 0 1 -4.5081,7.55405 12.718379,12.149033 0 0 1 -8.185095,2.79067 h -36.66923 a 12.768748,12.197148 0 0 1 -12.39097,-8.9975 13.902069,13.279735 0 0 0 -0.45333,-1.27505 17.453141,16.671841 0 0 1 0.90666,-6.30306 11.156914,10.657469 0 0 1 9.36878,-7.21725 c 0.20148,0 0.37777,-0.21652 0.57925,-0.33681 a 2.0399775,1.9486568 0 0 1 1.61184,-0.72172 c 2.87108,-0.12029 5.71697,-0.12029 8.56287,0 a 2.1155322,2.0208292 0 0 1 1.41035,0.64955 z"
     fill="#693b3b"
     p-id="12605"
     id="path154"
     style="stroke-width:0.221148" />
  <path
     d="m 93.589135,121.15942 a 9.5198951,9.0937316 0 0 1 -9.41916,7.93897 57.572699,54.995425 0 0 1 -12.31542,-0.26463 9.6206349,9.1899617 0 0 1 -7.55547,-5.46105 8.5376838,8.1554896 0 0 1 3.62663,-5.24454 20.928658,19.991775 0 0 1 23.49752,0 5.0369817,4.8114984 0 0 1 2.1659,3.03125 z"
     fill="#d45f5f"
     p-id="12606"
     id="path156"
     style="stroke-width:0.221148" />
  <path
     d="m 93.589135,121.15942 a 15.463534,14.7713 0 0 0 -11.98802,-5.72569 22.867896,21.844203 0 0 0 -7.8325,0.55333 15.110945,14.434495 0 0 0 -9.5199,7.45782 9.9228537,9.4786516 0 0 1 9.44434,-13.37597 h 9.57027 a 9.9228537,9.4786516 0 0 1 10.32581,11.09051 z"
     fill="#912424"
     p-id="12607"
     id="path158"
     style="stroke-width:0.221148" />
  <path
     d="m 119.80663,96.57266 a 2.8458945,2.7184965 0 0 1 -2.24146,2.21329 2.8207097,2.694439 0 0 1 -2.34219,-2.11706 2.5184908,2.4057492 0 0 1 2.31701,-2.2614 2.745155,2.6222666 0 0 1 2.26664,2.16517 z"
     fill="#e3c8b1"
     p-id="12608"
     id="path160"
     style="stroke-width:0.221148" />
  <path
     d="m 39.869726,96.59672 c 0,-1.37128 0.805917,-2.23735 2.014789,-2.18923 a 2.0903474,1.9967718 0 0 1 2.19109,2.093 2.6947851,2.5741515 0 0 1 -2.51849,2.28546 2.0651626,1.9727144 0 0 1 -1.687389,-2.18923 z"
     fill="#e4c8b1"
     p-id="12609"
     id="path162"
     style="stroke-width:0.221148" />
  <path
     d="m 112.50301,102.37052 c -1.43554,0 -2.3422,-0.76984 -2.29183,-1.90055 a 2.5184908,2.4057492 0 0 1 2.21627,-2.14111 2.6947851,2.5741515 0 0 1 2.36738,2.40575 2.0651626,1.9727144 0 0 1 -2.29182,1.63591 z"
     fill="#e3c8b1"
     p-id="12610"
     id="path164"
     style="stroke-width:0.221148" />
  <path
     d="m 49.389625,94.86458 a 2.0147927,1.9245993 0 0 1 -2.03998,-2.16518 1.9896076,1.9005417 0 0 1 2.19109,-1.87648 2.5184908,2.4057492 0 0 1 2.36738,2.21329 2.1407173,2.0448869 0 0 1 -2.51849,1.82837 z"
     fill="#e4c8b1"
     p-id="12611"
     id="path166"
     style="stroke-width:0.221148" />
  <path
     d="m 47.022235,102.37052 c -1.53627,0 -1.96442,-0.33681 -1.9896,-1.73214 -0.0252,-1.39534 0.70517,-2.40575 2.11553,-2.40575 a 1.9644228,1.8764843 0 0 1 2.11553,2.06894 c -0.0504,1.44345 -0.8311,2.06895 -2.24146,2.06895 z m 62.710435,-7.50594 a 2.1155322,2.0208292 0 1 1 2.21627,-1.99677 1.9896076,1.9005417 0 0 1 -2.21627,1.99677 z"
     fill="#e3c8b1"
     p-id="12612"
     id="path168"
     style="stroke-width:0.221148" />
  <path
     d="m 69.688655,65.29792 -11.63543,0.12029 c -2.51849,0 -3.72736,-1.65997 -5.03698,-3.24776 a 12.592454,12.028746 0 0 1 7.42955,-19.029477 12.164311,11.619768 0 0 1 14.27984,6.832326 12.41616,11.860343 0 0 1 -4.48291,14.939701 z m 29.11376,0.12029 -12.59246,-0.1684 a 13.096152,12.509896 0 0 1 -5.49031,-7.481883 12.592454,12.028746 0 1 1 25.008625,-2.261405 11.786537,11.258906 0 0 1 -6.925855,9.911688 z"
     fill="#fefefe"
     p-id="12613"
     id="path170"
     style="stroke-width:0.221148" />
  <path
     d="m 62.838365,72.49111 h -5.03698 a 4.6088382,4.402521 0 0 1 -1.81332,-0.26463 1.8133134,1.7321394 0 0 1 -1.25924,-2.093 1.8636832,1.7802544 0 0 1 1.86368,-1.65997 h 12.59245 a 1.8133134,1.7321394 0 0 1 1.30962,2.91096 3.022189,2.886899 0 0 1 -2.51849,1.08258 z"
     fill="#7b5050"
     p-id="12614"
     id="path172"
     style="stroke-width:0.221148" />
  <path
     d="m 57.373235,49.925184 c 0.25185,-0.38492 0.70518,-0.288689 1.03258,-0.408976 1.53628,-0.601438 2.03998,-1.226932 1.58665,-2.718497 -0.27703,-0.986357 0,-1.299105 0.8311,-1.563738 a 5.0369817,4.8114984 0 1 1 -3.12292,6.375237 3.0473738,2.9109564 0 0 1 -0.32741,-1.684026 z"
     fill="#351a1a"
     p-id="12615"
     id="path174"
     style="stroke-width:0.221148" />
  <path
     d="m 92.581735,44.632535 a 5.0687564,4.8418505 0 0 1 1.13332,9.622997 5.0369817,4.8114984 0 0 1 -5.91845,-3.175588 c -0.3274,-0.938242 -0.57925,-1.780254 0.93184,-2.141117 0.98221,-0.240575 1.3348,-1.106645 1.28443,-2.117059 0,-1.684024 0.1763,-1.948656 1.86369,-2.141117 z"
     fill="#361a1a"
     p-id="12616"
     id="path176"
     style="stroke-width:0.221148" />
</svg>
