<?xml version="1.0" encoding="UTF-8" standalone="no"?>
<svg
   xmlns:dc="http://purl.org/dc/elements/1.1/"
   xmlns:cc="http://creativecommons.org/ns#"
   xmlns:rdf="http://www.w3.org/1999/02/22-rdf-syntax-ns#"
   xmlns:svg="http://www.w3.org/2000/svg"
   xmlns="http://www.w3.org/2000/svg"
   xmlns:sodipodi="http://sodipodi.sourceforge.net/DTD/sodipodi-0.dtd"
   xmlns:inkscape="http://www.inkscape.org/namespaces/inkscape"
   t="1605204765605"
   class="icon"
   viewBox="0 0 204.8 204.8"
   version="1.1"
   p-id="13846"
   width="40"
   height="40"
   id="svg18"
   sodipodi:docname="骨头.svg"
   inkscape:version="1.0.1 (3bc2e813f5, 2020-09-07)">
  <metadata
     id="metadata22">
    <rdf:RDF>
      <cc:Work
         rdf:about="">
        <dc:format>image/svg+xml</dc:format>
        <dc:type
           rdf:resource="http://purl.org/dc/dcmitype/StillImage" />
        <dc:title></dc:title>
      </cc:Work>
    </rdf:RDF>
  </metadata>
  <sodipodi:namedview
     pagecolor="#ffffff"
     bordercolor="#666666"
     borderopacity="1"
     objecttolerance="10"
     gridtolerance="10"
     guidetolerance="10"
     inkscape:pageopacity="0"
     inkscape:pageshadow="2"
     inkscape:window-width="1920"
     inkscape:window-height="986"
     id="namedview20"
     showgrid="false"
     fit-margin-top="0"
     fit-margin-left="0"
     fit-margin-right="0"
     fit-margin-bottom="0"
     inkscape:zoom="4.02"
     inkscape:cx="87.499951"
     inkscape:cy="87.236768"
     inkscape:window-x="-11"
     inkscape:window-y="-11"
     inkscape:window-maximized="1"
     inkscape:current-layer="svg18" />
  <defs
     id="defs4">
    <style
       type="text/css"
       id="style2" />
  </defs>
  <path
     d="M 28.594233,154.17909 159.78054,22.59741 182.26946,45.15441 51.08338,176.73609 Z"
     fill="#fcb814"
     p-id="13847"
     id="path6"
     style="stroke-width:0.228916" />
  <path
     d="m 159.78237,22.596493 -5.42012,5.436469 17.06949,17.120528 -125.76733,126.14705 5.42011,5.43623 131.18699,-131.58328 z"
     fill=""
     p-id="13848"
     id="path8"
     style="stroke-width:0.228916" />
  <path
     d="m 60.94715,166.22561 c -4.38949,-4.4025 -10.13965,-6.60685 -15.8928,-6.61624 -0.009,-5.77096 -2.20709,-11.53803 -6.59657,-15.94076 -8.797948,-8.8245 -23.061721,-8.8245 -31.8596647,0 -8.797487,8.82403 -8.797487,23.13175 0,31.95625 4.3897147,4.4025 10.1396587,6.60684 15.8925737,6.61624 0.0096,5.77028 2.207543,11.53758 6.596575,15.94054 8.798166,8.82448 23.062166,8.82448 31.860116,0 8.79748,-8.82473 8.79748,-23.13154 -2.3e-4,-31.95603 z"
     fill="#fcb814"
     p-id="13849"
     id="path10"
     style="stroke-width:0.228916" />
  <path
     d="m 60.94715,187.3087 c -8.79794,8.82448 -23.06194,8.82448 -31.860118,0 -4.389257,-4.40297 -6.586972,-10.17003 -6.596572,-15.94053 -5.752915,-0.009 -11.502858,-2.21375 -15.8925737,-6.61625 -3.008228,-3.01731 -4.961828,-6.68044 -5.91291505,-10.54188 -1.83039995,7.43058 0.1232,15.6074 5.91291505,21.41459 4.3897157,4.4025 10.1396587,6.60684 15.8925737,6.61625 0.0096,5.77027 2.207543,11.53756 6.596572,15.94052 8.798178,8.82449 23.062178,8.82449 31.860118,0 5.78949,-5.80718 7.74355,-13.98378 5.91291,-21.41459 -0.95085,3.86167 -2.90468,7.52458 -5.91291,10.54189 z"
     fill=""
     p-id="13850"
     id="path12"
     style="stroke-width:0.228916" />
  <path
     d="m 198.20157,29.175832 c -4.38971,-4.402505 -10.13966,-6.60685 -15.89257,-6.61625 -0.01,-5.770732 -2.20754,-11.538254 -6.59657,-15.9412137 -8.79795,-8.824491 -23.06172,-8.824491 -31.86012,0 -8.79749,8.8244897 -8.79749,23.1317587 0,31.9562517 4.38948,4.40249 10.13966,6.60685 15.8928,6.61624 0.01,5.7705 2.20708,11.53825 6.59657,15.94076 8.79795,8.82403 23.06172,8.82403 31.85967,0 8.79816,-8.82449 8.79816,-23.13153 2.2e-4,-31.955788 z"
     fill="#fcb814"
     p-id="13851"
     id="path14"
     style="stroke-width:0.228916" />
  <path
     d="m 198.20157,53.88307 c -8.79794,8.82403 -23.06194,8.82403 -31.85966,0 -4.38948,-4.4025 -6.58697,-10.17025 -6.59657,-15.94052 -5.75315,-0.01 -11.50331,-2.21421 -15.8928,-6.616482 -3.47612,-3.486601 -5.55612,-7.831559 -6.28526,-12.353735 -1.11657,6.922769 0.96388,14.264627 6.28526,19.602287 4.38949,4.40249 10.13965,6.60685 15.8928,6.61624 0.01,5.7705 2.20709,11.53825 6.59657,15.94076 8.79795,8.82403 23.06172,8.82403 31.85966,0 5.32183,-5.33812 7.40183,-12.67905 6.28549,-19.60251 -0.72937,4.5224 -2.80937,8.86782 -6.28549,12.35396 z"
     fill=""
     p-id="13852"
     id="path16"
     style="stroke-width:0.228916" />
</svg>
