<?xml version="1.0" encoding="UTF-8" standalone="no"?>
<svg
   xmlns:dc="http://purl.org/dc/elements/1.1/"
   xmlns:cc="http://creativecommons.org/ns#"
   xmlns:rdf="http://www.w3.org/1999/02/22-rdf-syntax-ns#"
   xmlns:svg="http://www.w3.org/2000/svg"
   xmlns="http://www.w3.org/2000/svg"
   xmlns:sodipodi="http://sodipodi.sourceforge.net/DTD/sodipodi-0.dtd"
   xmlns:inkscape="http://www.inkscape.org/namespaces/inkscape"
   t="1605320483329"
   class="icon"
   viewBox="0 0 256 256"
   version="1.1"
   p-id="2400"
   width="50"
   height="50"
   id="svg8"
   sodipodi:docname="黑洞.svg"
   inkscape:version="1.0.1 (3bc2e813f5, 2020-09-07)">
  <metadata
     id="metadata12">
    <rdf:RDF>
      <cc:Work
         rdf:about="">
        <dc:format>image/svg+xml</dc:format>
        <dc:type
           rdf:resource="http://purl.org/dc/dcmitype/StillImage" />
        <dc:title></dc:title>
      </cc:Work>
    </rdf:RDF>
  </metadata>
  <sodipodi:namedview
     pagecolor="#ffffff"
     bordercolor="#666666"
     borderopacity="1"
     objecttolerance="10"
     gridtolerance="10"
     guidetolerance="10"
     inkscape:pageopacity="0"
     inkscape:pageshadow="2"
     inkscape:window-width="1920"
     inkscape:window-height="986"
     id="namedview10"
     showgrid="false"
     fit-margin-top="0"
     fit-margin-left="0"
     fit-margin-right="0"
     fit-margin-bottom="0"
     inkscape:zoom="4.02"
     inkscape:cx="99.972266"
     inkscape:cy="100"
     inkscape:window-x="-11"
     inkscape:window-y="-11"
     inkscape:window-maximized="1"
     inkscape:current-layer="svg8" />
  <defs
     id="defs4">
    <style
       type="text/css"
       id="style2" />
  </defs>
  <path
     d="m 128.53344,166.27734 a 37.96254,37.967832 0 1 1 37.91277,-37.96784 37.991048,37.996344 0 0 1 -37.91277,37.96784 z m 0,-68.771681 a 30.799551,30.803845 0 1 0 30.79955,30.810851 30.821057,30.825354 0 0 0 -30.79955,-30.817854 z m 0,123.934181 a 93.110351,93.123332 0 1 1 93.11035,-93.12333 93.18137,93.194361 0 0 1 -93.11035,93.11633 z m 0,-171.932946 A 78.791875,78.80286 0 1 0 207.34632,128.31651 78.891153,78.902152 0 0 0 128.53344,49.499641 Z M 248.88685,174.15262 a 7.1629887,7.1639873 0 0 1 -7.18425,-7.15673 117.62191,117.6383 0 0 0 -117.50812,-117.496249 7.1592378,7.160236 0 0 1 0,-14.320472 131.93363,131.95202 0 0 1 131.80534,131.809461 7.1129748,7.1139665 0 0 1 -7.11297,7.16399 z M 89.055725,256 a 7.1557374,7.156735 0 1 1 0,-14.31347 117.60765,117.62405 0 0 0 117.437105,-117.49599 7.1487347,7.1497314 0 1 1 14.29722,0 A 131.91913,131.93752 0 0 1 89.055975,256 Z M 131.80534,220.82808 A 131.98339,132.00179 0 0 1 0,89.011367 a 7.1842446,7.1852462 0 0 1 14.368489,0 117.60765,117.62405 0 0 0 117.436851,117.495993 7.1629887,7.1639873 0 1 1 0,14.32072 z M 42.39402,138.95919 A 7.1629887,7.1639873 0 0 1 35.209525,131.80246 131.93363,131.95202 0 0 1 167.01537,0 a 7.1593629,7.160361 0 1 1 0,14.320722 117.62191,117.6383 0 0 0 -117.508125,117.495998 7.1129748,7.1139665 0 0 1 -7.112975,7.14247 z"
     p-id="2401"
     id="path6"
     style="stroke-width:0.250087" />
</svg>
